<?xml version="1.0" encoding="utf-8"?>
<!-- Generator: Adobe Illustrator 21.1.0, SVG Export Plug-In . SVG Version: 6.00 Build 0)  -->
<svg version="1.1" id="Layer_1" xmlns="http://www.w3.org/2000/svg" xmlns:xlink="http://www.w3.org/1999/xlink" x="0px" y="0px"
	 viewBox="0 0 256 256" style="enable-background:new 0 0 256 256;" xml:space="preserve">
<style type="text/css">
	.st0{opacity:0.2;}
	.st1{fill:#BFAF8F;}
</style>
<g transform="translate(1.4065934065934016 1.4065934065934016) scale(2.81 2.81)" class="st0">
	<path class="st1" d="M89,30.9h-5.7V16.7c0-0.3-0.1-0.5-0.3-0.7c-0.2-0.2-0.5-0.3-0.7-0.3c-4.3,0.1-8.5,0.8-12.6,1.7V6.5
		c0-0.3-0.2-0.7-0.5-0.8c-0.3-0.2-0.7-0.2-1-0.1c-8.9,4.3-16.8,12.6-23.5,24.8C34.7,21.1,23,16.2,9.8,15.7c-0.3,0-0.5,0.1-0.7,0.3
		c-0.2,0.2-0.3,0.4-0.3,0.7V24c-1.4,0.1-2.8,0.2-4.2,0.4c-0.5,0.1-0.9,0.5-0.9,1v5.5H0v53.6h45h44c0.6,0,1-0.4,1-1V31.9
		C90,31.3,89.6,30.9,89,30.9z M81.3,17.7v49.5c-12.1,0.6-23,4.6-32.6,11.9c6-9.8,12.9-16.6,20.5-20.2c0.3-0.2,0.6-0.5,0.6-0.9V19.5
		C73.4,18.5,77.3,17.9,81.3,17.7z M67.7,8.1v49.3C59.6,61.5,52.3,69,46,79.7V32.2C52.3,20.6,59.5,12.6,67.7,8.1z M44,32.4v48.7
		c-0.1-0.1-0.2-0.1-0.3-0.2c-9.5-8.4-20.6-13-32.9-13.7V24.9l0,0l0,0v-7.1C23.3,18.4,34.5,23.4,44,32.4z M8.8,26v42.2
		c0,0.5,0.4,1,1,1c9.2,0.3,17.7,3,25.4,7.8c-8.8-3.2-18.5-4.2-29-3.1L5.7,26.3C6.7,26.2,7.8,26.1,8.8,26z M2,32.9h1.8l0.4,42.2
		c0,0.3,0.1,0.6,0.3,0.7C4.7,76,5,76.1,5.2,76.1c13.9-1.7,26.3,0.5,37.1,6.4H2V32.9z M88,82.5H47.7c10-8.4,21.6-12.8,34.6-13.3
		c0.5,0,1-0.5,1-1V32.9H88V82.5z"/>
</g>
</svg>
